<svg width="800" height="800" viewBox="0 0 12.7 12.7" xmlns="http://www.w3.org/2000/svg"><path d="M285.453-81.36a6.35 6.35 0 0 1-3.175 5.5 6.35 6.35 0 0 1-6.35 0l3.175-5.5z" style="fill:#80decc;fill-opacity:1;stroke:none;stroke-width:2.05646634;stroke-linecap:round;stroke-linejoin:round;stroke-miterlimit:4;stroke-dasharray:none;stroke-opacity:1" transform="rotate(105 109.076 -142.15)"/><path d="M-62.742 282.39a6.35 6.35 0 0 1-3.175 5.5 6.35 6.35 0 0 1-6.35 0l3.175-5.5z" style="fill:#ffac76;fill-opacity:1;stroke:none;stroke-width:2.05646634;stroke-linecap:round;stroke-linejoin:round;stroke-miterlimit:4;stroke-dasharray:none;stroke-opacity:1" transform="rotate(-15 -1079.736 -142.15)"/><path d="M-203.66-201.03a6.35 6.35 0 0 1-3.176 5.499 6.35 6.35 0 0 1-6.35 0l3.175-5.5z" style="fill:#ffb6b6;fill-opacity:1;stroke:none;stroke-width:2.05646634;stroke-linecap:round;stroke-linejoin:round;stroke-miterlimit:4;stroke-dasharray:none;stroke-opacity:1" transform="rotate(-135 -58.88 -142.15)"/><path d="M16.48 287.896a2.272 2.272 0 0 0-.652 1.59 2.272 2.272 0 0 0 1.506 2.138l.607-2.267z" style="fill:#5dc1ae;fill-opacity:1;stroke:none;stroke-width:2.11666656;stroke-linecap:round;stroke-linejoin:round;stroke-miterlimit:4;stroke-dasharray:none;stroke-opacity:1" transform="matrix(1.10616 0 0 1.10616 -13.517 -313.644)"/><path d="M18.1 287.215a2.272 2.272 0 0 0-1.62.681l1.461 1.46 2.303-.617a2.272 2.272 0 0 0-2.144-1.524z" style="fill:#ff7d7d;fill-opacity:1;stroke:none;stroke-width:2.11666656;stroke-linecap:round;stroke-linejoin:round;stroke-miterlimit:4;stroke-dasharray:none;stroke-opacity:1" transform="matrix(1.10616 0 0 1.10616 -13.517 -313.644)"/><path d="m20.245 288.74-2.304.617-.607 2.266a2.272 2.272 0 0 0 .767.136 2.272 2.272 0 0 0 2.273-2.272 2.272 2.272 0 0 0-.13-.747z" style="fill:#ff924b;fill-opacity:1;stroke:none;stroke-width:2.11666656;stroke-linecap:round;stroke-linejoin:round;stroke-miterlimit:4;stroke-dasharray:none;stroke-opacity:1" transform="matrix(1.10616 0 0 1.10616 -13.517 -313.644)"/><g transform="matrix(1.09457 0 0 1.09457 14.467 -323.398)"><circle cx="-7.433" cy="301.244" r="2.114" style="fill:#fff;fill-opacity:1;stroke:none;stroke-width:1.14740372;stroke-linecap:round;stroke-linejoin:round;stroke-miterlimit:4;stroke-dasharray:none;stroke-opacity:1"/><circle cx="-7.433" cy="301.244" r="1.568" style="fill:#7aafff;fill-opacity:1;stroke:none;stroke-width:.85095716;stroke-linecap:round;stroke-linejoin:round;stroke-miterlimit:4;stroke-dasharray:none;stroke-opacity:1"/></g></svg>