<svg width="800" height="800" viewBox="0 0 12.7 12.7" xmlns="http://www.w3.org/2000/svg"><g transform="translate(0 -284.3)"><circle cx="6.35" cy="290.65" r="6.35" style="fill:#acf;fill-opacity:1;stroke:none;stroke-width:1.74658811;stroke-linecap:round;stroke-linejoin:round;stroke-miterlimit:4;stroke-dasharray:none;stroke-opacity:1"/><path d="M3.997 287.234h5.305c.118 0 .212.095.212.213v7.006a.212.212 0 0 1-.212.212H3.997a.212.212 0 0 1-.212-.212v-7.006c0-.118.095-.213.212-.213z" style="opacity:1;fill:#5b99f8;fill-opacity:1;stroke:none;stroke-width:1;stroke-linecap:round;stroke-linejoin:round;stroke-miterlimit:4;stroke-dasharray:none;stroke-dashoffset:0;stroke-opacity:1;paint-order:normal"/><path d="M3.698 286.935h5.304c.118 0 .213.094.213.212v7.006a.212.212 0 0 1-.213.212H3.698a.212.212 0 0 1-.213-.212v-7.006c0-.118.095-.212.213-.212z" style="opacity:1;fill:#fff;fill-opacity:1;stroke:none;stroke-width:.99999994;stroke-linecap:round;stroke-linejoin:round;stroke-miterlimit:4;stroke-dasharray:none;stroke-dashoffset:0;stroke-opacity:1;paint-order:normal"/><path d="M4.353 292.027h3.51a.165.165 0 0 1 0 .33h-3.51a.165.165 0 1 1 0-.33zM4.353 293.024h3.994a.164.164 0 1 1 0 .33H4.353a.164.164 0 1 1 0-.33z" style="opacity:1;fill:#ccc;fill-opacity:1;stroke:none;stroke-width:.51573467;stroke-linecap:round;stroke-linejoin:round;stroke-miterlimit:4;stroke-dasharray:none;stroke-dashoffset:0;stroke-opacity:1;paint-order:normal"/><path d="M4.353 289.777h3.994a.164.164 0 1 1 0 .33H4.353a.164.164 0 1 1 0-.33zM4.331 288.708H7.69c.08 0 .143.064.143.144v.043c0 .079-.064.143-.143.143H4.33a.143.143 0 0 1-.143-.143v-.043c0-.08.064-.144.143-.144zM4.353 287.697h2.352a.165.165 0 1 1 0 .33H4.353a.164.164 0 1 1 0-.33zM4.346 290.887h3.06c.088 0 .158.07.158.158v.014c0 .088-.07.158-.157.158H4.346a.157.157 0 0 1-.158-.158v-.014c0-.087.07-.158.158-.158z" style="opacity:1;fill:#ccc;fill-opacity:1;stroke:none;stroke-width:.51573473;stroke-linecap:round;stroke-linejoin:round;stroke-miterlimit:4;stroke-dasharray:none;stroke-dashoffset:0;stroke-opacity:1;paint-order:normal"/></g></svg>